{
	"asset":{
		"generator":"Khronos glTF Blender I/O v5.0.21",
		"version":"2.0"
	},
	"extensionsUsed":[
		"KHR_materials_specular"
	],
	"scene":0,
	"scenes":[
		{
			"name":"Scene",
			"nodes":[
				0
			]
		}
	],
	"nodes":[
		{
			"mesh":0,
			"name":"Cube.001",
			"scale":[
				0.19709992408752441,
				0.19709992408752441,
				0.19709992408752441
			]
		}
	],
	"materials":[
		{
			"extensions":{
				"KHR_materials_specular":{
					"specularFactor":0.6954314708709717
				}
			},
			"name":"Material",
			"pbrMetallicRoughness":{
				"baseColorFactor":[
					0,
					0,
					0.4015718400478363,
					1
				],
				"metallicFactor":0,
				"roughnessFactor":0.10000000149011612
			}
		}
	],
	"meshes":[
		{
			"name":"Cube.001",
			"primitives":[
				{
					"attributes":{
						"POSITION":0,
						"NORMAL":1,
						"TEXCOORD_0":2
					},
					"indices":3,
					"material":0
				}
			]
		}
	],
	"accessors":[
		{
			"bufferView":0,
			"componentType":5126,
			"count":885,
			"max":[
				0.8342635035514832,
				0.8342028856277466,
				0.8342633247375488
			],
			"min":[
				-0.8342635035514832,
				-0.834263265132904,
				-0.8342633247375488
			],
			"type":"VEC3"
		},
		{
			"bufferView":1,
			"componentType":5126,
			"count":885,
			"type":"VEC3"
		},
		{
			"bufferView":2,
			"componentType":5126,
			"count":885,
			"type":"VEC2"
		},
		{
			"bufferView":3,
			"componentType":5123,
			"count":4272,
			"type":"SCALAR"
		}
	],
	"bufferViews":[
		{
			"buffer":0,
			"byteLength":10620,
			"byteOffset":0,
			"target":34962
		},
		{
			"buffer":0,
			"byteLength":10620,
			"byteOffset":10620,
			"target":34962
		},
		{
			"buffer":0,
			"byteLength":7080,
			"byteOffset":21240,
			"target":34962
		},
		{
			"buffer":0,
			"byteLength":8544,
			"byteOffset":28320,
			"target":34963
		}
	],
	"buffers":[
		{
			"byteLength":36864,
			"uri":"bola.bin"
		}
	]
}
