{
	"asset":{
		"generator":"Khronos glTF Blender I/O v5.0.21",
		"version":"2.0"
	},
	"scene":0,
	"scenes":[
		{
			"name":"Scene",
			"nodes":[
				0,
				1,
				2
			]
		}
	],
	"nodes":[
		{
			"mesh":0,
			"name":"Cube"
		},
		{
			"mesh":1,
			"name":"Plane"
		},
		{
			"mesh":2,
			"name":"Plane.001",
			"translation":[
				4.488597393035889,
				0.0702284425497055,
				-1.9344158172607422
			]
		}
	],
	"materials":[
		{
			"doubleSided":true,
			"name":"env",
			"pbrMetallicRoughness":{
				"metallicFactor":0,
				"roughnessFactor":0.5
			}
		}
	],
	"meshes":[
		{
			"name":"Cube.001",
			"primitives":[
				{
					"attributes":{
						"POSITION":0,
						"NORMAL":1,
						"TEXCOORD_0":2
					},
					"indices":3,
					"material":0
				}
			]
		},
		{
			"name":"Plane",
			"primitives":[
				{
					"attributes":{
						"POSITION":4,
						"NORMAL":5,
						"TEXCOORD_0":6
					},
					"indices":7
				}
			]
		},
		{
			"name":"Plane.001",
			"primitives":[
				{
					"attributes":{
						"POSITION":8,
						"NORMAL":9,
						"TEXCOORD_0":10
					},
					"indices":11
				}
			]
		}
	],
	"accessors":[
		{
			"bufferView":0,
			"componentType":5126,
			"count":48,
			"max":[
				6.997832775115967,
				3.1865041255950928,
				6.01124906539917
			],
			"min":[
				-6.997832775115967,
				-0.028867512941360474,
				-6.01124906539917
			],
			"type":"VEC3"
		},
		{
			"bufferView":1,
			"componentType":5126,
			"count":48,
			"type":"VEC3"
		},
		{
			"bufferView":2,
			"componentType":5126,
			"count":48,
			"type":"VEC2"
		},
		{
			"bufferView":3,
			"componentType":5123,
			"count":72,
			"type":"SCALAR"
		},
		{
			"bufferView":4,
			"componentType":5126,
			"count":224,
			"max":[
				7.531978607177734,
				3.323883295059204,
				-5.402356147766113
			],
			"min":[
				-7.531978607177734,
				-0.13715258240699768,
				-6.152356147766113
			],
			"type":"VEC3"
		},
		{
			"bufferView":5,
			"componentType":5126,
			"count":224,
			"type":"VEC3"
		},
		{
			"bufferView":6,
			"componentType":5126,
			"count":224,
			"type":"VEC2"
		},
		{
			"bufferView":7,
			"componentType":5123,
			"count":684,
			"type":"SCALAR"
		},
		{
			"bufferView":8,
			"componentType":5126,
			"count":428,
			"max":[
				0.08692589402198792,
				0.03787916526198387,
				3.4653382301330566
			],
			"min":[
				-9.100666046142578,
				-0.08594143390655518,
				-3.465338706970215
			],
			"type":"VEC3"
		},
		{
			"bufferView":9,
			"componentType":5126,
			"count":428,
			"type":"VEC3"
		},
		{
			"bufferView":10,
			"componentType":5126,
			"count":428,
			"type":"VEC2"
		},
		{
			"bufferView":11,
			"componentType":5123,
			"count":2304,
			"type":"SCALAR"
		}
	],
	"bufferViews":[
		{
			"buffer":0,
			"byteLength":576,
			"byteOffset":0,
			"target":34962
		},
		{
			"buffer":0,
			"byteLength":576,
			"byteOffset":576,
			"target":34962
		},
		{
			"buffer":0,
			"byteLength":384,
			"byteOffset":1152,
			"target":34962
		},
		{
			"buffer":0,
			"byteLength":144,
			"byteOffset":1536,
			"target":34963
		},
		{
			"buffer":0,
			"byteLength":2688,
			"byteOffset":1680,
			"target":34962
		},
		{
			"buffer":0,
			"byteLength":2688,
			"byteOffset":4368,
			"target":34962
		},
		{
			"buffer":0,
			"byteLength":1792,
			"byteOffset":7056,
			"target":34962
		},
		{
			"buffer":0,
			"byteLength":1368,
			"byteOffset":8848,
			"target":34963
		},
		{
			"buffer":0,
			"byteLength":5136,
			"byteOffset":10216,
			"target":34962
		},
		{
			"buffer":0,
			"byteLength":5136,
			"byteOffset":15352,
			"target":34962
		},
		{
			"buffer":0,
			"byteLength":3424,
			"byteOffset":20488,
			"target":34962
		},
		{
			"buffer":0,
			"byteLength":4608,
			"byteOffset":23912,
			"target":34963
		}
	],
	"buffers":[
		{
			"byteLength":28520,
			"uri":"test_env.bin"
		}
	]
}
